<?xml version="1.0" encoding="UTF-8" standalone="no"?>
<!-- Created with Inkscape (http://www.inkscape.org/) -->

<svg
   width="68.81694mm"
   height="68.727974mm"
   viewBox="0 0 68.81694 68.727974"
   version="1.1"
   id="svg1"
   inkscape:version="1.3.2 (091e20ef0f, 2023-11-25, custom)"
   sodipodi:docname="newFavicon.svg"
   inkscape:export-filename="flowerLogoUnbackedGilded.png"
   inkscape:export-xdpi="192"
   inkscape:export-ydpi="192"
   xmlns:inkscape="http://www.inkscape.org/namespaces/inkscape"
   xmlns:sodipodi="http://sodipodi.sourceforge.net/DTD/sodipodi-0.dtd"
   xmlns:xlink="http://www.w3.org/1999/xlink"
   xmlns="http://www.w3.org/2000/svg"
   xmlns:svg="http://www.w3.org/2000/svg">
  <sodipodi:namedview
     id="namedview1"
     pagecolor="#ffffff"
     bordercolor="#000000"
     borderopacity="0.25"
     inkscape:showpageshadow="2"
     inkscape:pageopacity="0.0"
     inkscape:pagecheckerboard="0"
     inkscape:deskcolor="#d1d1d1"
     inkscape:document-units="mm"
     inkscape:zoom="0.76969697"
     inkscape:cx="-41.574803"
     inkscape:cy="-72.755906"
     inkscape:window-width="1918"
     inkscape:window-height="1060"
     inkscape:window-x="1920"
     inkscape:window-y="18"
     inkscape:window-maximized="1"
     inkscape:current-layer="layer1" />
  <defs
     id="defs1">
    <linearGradient
       id="linearGradient45"
       inkscape:collect="always">
      <stop
         style="stop-color:#a40032;stop-opacity:0;"
         offset="0"
         id="stop45" />
      <stop
         style="stop-color:#a40032;stop-opacity:0.29411765;"
         offset="0.09969354"
         id="stop44" />
      <stop
         style="stop-color:#a40032;stop-opacity:0.60392157;"
         offset="0.39559191"
         id="stop43" />
      <stop
         style="stop-color:#a40032;stop-opacity:0.74509804;"
         offset="0.59557965"
         id="stop42" />
      <stop
         style="stop-color:#a40032;stop-opacity:0.92941176;"
         offset="0.80025049"
         id="stop41" />
      <stop
         style="stop-color:#a40032;stop-opacity:1;"
         offset="1"
         id="stop40" />
    </linearGradient>
    <linearGradient
       id="linearGradient27"
       inkscape:collect="always">
      <stop
         style="stop-color:#a40032;stop-opacity:1;"
         offset="0"
         id="stop27" />
      <stop
         style="stop-color:#a40032;stop-opacity:0.92941176;"
         offset="0.19974951"
         id="stop32" />
      <stop
         style="stop-color:#a40032;stop-opacity:0.74509804;"
         offset="0.40442035"
         id="stop31" />
      <stop
         style="stop-color:#a40032;stop-opacity:0.60392157;"
         offset="0.60440809"
         id="stop30" />
      <stop
         style="stop-color:#a40032;stop-opacity:0.29411765;"
         offset="0.90030646"
         id="stop29" />
      <stop
         style="stop-color:#a40032;stop-opacity:0;"
         offset="1"
         id="stop28" />
    </linearGradient>
    <linearGradient
       inkscape:collect="always"
       xlink:href="#linearGradient27"
       id="linearGradient38-8"
       x1="57.679684"
       y1="133.58565"
       x2="32.679661"
       y2="133.58565"
       gradientUnits="userSpaceOnUse" />
    <linearGradient
       inkscape:collect="always"
       xlink:href="#linearGradient27"
       id="linearGradient28-7"
       x1="66.829285"
       y1="142.73578"
       x2="66.922035"
       y2="167.67972"
       gradientUnits="userSpaceOnUse" />
    <linearGradient
       inkscape:collect="always"
       xlink:href="#linearGradient27"
       id="linearGradient34-0"
       x1="75.974693"
       y1="133.58565"
       x2="100.97472"
       y2="133.58565"
       gradientUnits="userSpaceOnUse" />
    <linearGradient
       inkscape:collect="always"
       xlink:href="#linearGradient27"
       id="linearGradient36-3"
       x1="66.821777"
       y1="124.44151"
       x2="66.82177"
       y2="99.441483"
       gradientUnits="userSpaceOnUse" />
    <radialGradient
       inkscape:collect="always"
       xlink:href="#linearGradient45"
       id="radialGradient40-6-7"
       cx="66.827187"
       cy="133.589"
       fx="66.827187"
       fy="133.589"
       r="9.1475039"
       gradientTransform="translate(0,-1.4603875e-5)"
       gradientUnits="userSpaceOnUse" />
  </defs>
  <g
     inkscape:label="Layer 1"
     inkscape:groupmode="layer"
     id="layer1"
     transform="translate(-111.58531,-117.10026)">
    <g
       id="g11-7-8"
       transform="translate(79.09579,17.875287)"
       style="fill:#a40032;fill-opacity:1;stroke:none">
      <path
         d="m 54.330534,146.08566 c -6.7e-5,-4.38837 1.155034,-8.69955 3.349149,-12.50002 -2.194115,-3.80047 -3.349216,-8.11164 -3.349149,-12.50001 -8.931647,-8e-5 -17.185055,4.76497 -21.650875,12.50001 4.46582,7.73504 12.719228,12.5001 21.650875,12.50002 z"
         style="fill:url(#linearGradient38-8);fill-opacity:1;stroke:none;stroke-width:0.1"
         id="path9-4-3" />
      <path
         d="m 66.830546,142.73651 c -3.800493,2.19412 -8.111624,3.34922 -12.500012,3.34915 -8.3e-5,8.9317 4.76493,17.18503 12.500012,21.65087 7.735083,-4.46584 12.500095,-12.71917 12.500012,-21.65087 -4.388388,7e-5 -8.699519,-1.15503 -12.500012,-3.34915 z"
         style="fill:url(#linearGradient28-7);fill-opacity:1;stroke:none;stroke-width:0.1"
         id="path8-3-0" />
      <path
         d="m 75.974691,133.59495 c -2.194435,-3.80178 -5.351276,-6.9588 -9.15293,-9.15345 -3.796487,2.19359 -6.949345,5.34716 -9.142078,9.14414 2.194224,3.80057 5.350298,6.95664 9.150863,9.15087 3.796918,-2.19259 6.950482,-5.34527 9.144145,-9.14156 z"
         style="fill:url(#radialGradient40-6-7);fill-opacity:1;stroke:none;stroke-width:0.1"
         id="path7-1-1" />
      <path
         d="m 79.330558,121.08563 c -3.42e-4,4.39215 -1.157817,8.70675 -3.355867,12.50932 2.194896,3.7971 3.35226,8.10487 3.355867,12.49071 8.927365,-4e-4 17.177163,-4.76131 21.644162,-12.49071 -4.462279,-7.73658 -12.712961,-12.50508 -21.644162,-12.50932 z"
         style="fill:url(#linearGradient34-0);fill-opacity:1;stroke:none;stroke-width:0.1"
         id="path6-4-7" />
      <path
         d="m 66.821761,99.441475 c -7.729576,4.466855 -12.490723,12.716725 -12.491227,21.644155 4.385992,0.004 8.693988,1.1609 12.491227,3.35587 3.802399,-2.19795 8.116846,-3.35543 12.508797,-3.35587 -0.0041,-8.93105 -4.772457,-17.18176 -12.508797,-21.644155 z"
         style="fill:url(#linearGradient36-3);fill-opacity:1;stroke:none;stroke-width:0.1"
         id="path5-6-8" />
    </g>
    <g
       id="g25-9-9"
       transform="translate(73.16335,66.69195)"
       style="fill:#b28600;fill-opacity:1;stroke:#806000;stroke-width:0.375;stroke-dasharray:none;stroke-opacity:1">
      <path
         d="m 70.228271,77.304325 c -0.556824,0.419242 -1.095521,0.86064 -1.614371,1.323951 -0.703871,0.628526 -1.370994,1.296382 -1.999361,2.000394 -0.460892,0.516375 -0.899976,1.051618 -1.317233,1.605587 l 1.461927,-1.46141 1.999878,-1.999361 z"
         style="fill:#b28600;fill-opacity:1;stroke:#806000;stroke-width:0.375;stroke-dasharray:none;stroke-opacity:1"
         id="path25-4-1" />
      <path
         d="m 65.297306,82.234257 -0.538985,0.538468 -1.442289,1.44229 -0.557589,0.557072 0.555005,0.555521 1.444873,1.444357 0.555005,0.554488 c -0.159487,-0.211305 -0.310662,-0.429425 -0.463538,-0.645956 -0.437165,-0.619194 -0.856784,-1.251821 -1.23765,-1.911511 0.380106,-0.658199 0.798906,-1.289496 1.235067,-1.907377 0.148487,-0.210353 0.295374,-0.421928 0.450101,-0.627352 z"
         style="fill:#b28600;fill-opacity:1;stroke:#806000;stroke-width:0.375;stroke-dasharray:none;stroke-opacity:1"
         id="path24-2-5" />
      <path
         d="m 65.313326,87.326453 c 0.413225,0.547483 0.847903,1.076293 1.303796,1.586983 0.628406,0.703937 1.295981,1.371428 1.999878,1.999878 0.51252,0.457585 1.043605,0.894361 1.593185,1.308964 l -1.451074,-1.451074 -1.999878,-1.999362 z"
         style="fill:#b28600;fill-opacity:1;stroke:#806000;stroke-width:0.375;stroke-dasharray:none;stroke-opacity:1"
         id="path23-2-4" />
      <path
         d="m 70.210185,92.222278 0.54932,0.548804 1.446424,1.446423 0.553454,0.553454 0.556039,-0.556038 1.443839,-1.443323 0.534334,-0.534334 c -0.20369,0.153358 -0.413649,0.298744 -0.622184,0.445968 -0.618421,0.436599 -1.249597,0.856175 -1.908411,1.236617 -0.660157,-0.381138 -1.293457,-0.801169 -1.913061,-1.238684 -0.214466,-0.15144 -0.430415,-0.300962 -0.639754,-0.458887 z"
         style="fill:#b28600;fill-opacity:1;stroke:#806000;stroke-width:0.375;stroke-dasharray:none;stroke-opacity:1"
         id="path22-6-9" />
      <path
         d="m 80.224561,87.307849 -1.464511,1.463993 -1.999877,1.999362 -1.466578,1.46606 c 0.555716,-0.418396 1.093373,-0.858555 1.611272,-1.32085 0.70405,-0.62846 1.371847,-1.295902 2.000394,-1.999878 0.461773,-0.517187 0.901307,-1.053769 1.3193,-1.608687 z"
         style="fill:#b28600;fill-opacity:1;stroke:#806000;stroke-width:0.375;stroke-dasharray:none;stroke-opacity:1"
         id="path21-4-2" />
      <path
         d="m 80.199756,82.212036 c 0.161321,0.213586 0.313624,0.434261 0.468188,0.65319 0.437547,0.619753 0.858057,1.252743 1.239201,1.913062 -0.379986,0.657592 -0.799122,1.287985 -1.235067,1.90531 -0.147722,0.209183 -0.293623,0.419944 -0.447517,0.624251 l 0.535884,-0.535884 1.441773,-1.441773 0.558105,-0.558105 -0.553971,-0.553455 -1.445907,-1.445907 z"
         style="fill:#b28600;fill-opacity:1;stroke:#806000;stroke-width:0.375;stroke-dasharray:none;stroke-opacity:1"
         id="path20-1-5" />
      <path
         d="m 75.314266,77.32758 1.445907,1.445906 1.999877,1.999361 1.439706,1.439189 C 79.788182,81.667122 79.354987,81.140211 78.901127,80.631771 78.272724,79.927797 77.60515,79.260376 76.901249,78.631893 76.390578,78.175935 75.861738,77.740868 75.314266,77.32758 Z"
         style="fill:#b28600;fill-opacity:1;stroke:#806000;stroke-width:0.375;stroke-dasharray:none;stroke-opacity:1"
         id="path19-2-7" />
      <path
         d="m 72.759383,74.77373 -0.556038,0.556556 -1.44384,1.443322 -0.531234,0.530717 c 0.202566,-0.152514 0.41121,-0.296935 0.618567,-0.443383 0.617899,-0.436399 1.249132,-0.85577 1.907377,-1.236101 0.660631,0.381375 1.294075,0.801887 1.914096,1.239718 0.216492,0.152877 0.434688,0.303535 0.645955,0.463021 l -0.555005,-0.554488 -1.44694,-1.44694 z"
         style="fill:#b28600;fill-opacity:1;stroke:#806000;stroke-width:0.375;stroke-dasharray:none;stroke-opacity:1"
         id="path18-8-4" />
      <path
         d="m 72.754215,50.624817 c -0.03089,0.01785 -0.05964,0.03836 -0.09043,0.05633 -0.837263,0.488618 -1.635665,1.025722 -2.400371,1.599386 -0.761628,0.571355 -1.482206,1.185648 -2.167309,1.83348 -0.688111,0.650675 -1.337749,1.335305 -1.944067,2.055171 -0.614807,0.729945 -1.193333,1.488169 -1.719275,2.280998 -0.354666,0.534639 -0.682343,1.085825 -0.994772,1.645894 l 1.320333,-1.320332 2.000395,-1.999878 2.000395,-1.999362 2.000394,-2.000394 1.999878,-1.999361 1.999878,1.999361 2.000912,2.000394 1.999877,1.999362 2.000395,1.999878 1.322917,1.322399 C 81.770168,59.53718 81.4421,58.985088 81.086526,58.449665 c -0.5263,-0.792504 -1.105191,-1.550379 -1.720308,-2.279964 -0.606657,-0.71955 -1.256694,-1.403817 -1.945101,-2.054138 -0.685476,-0.647553 -1.40637,-1.261422 -2.168343,-1.832446 -0.765111,-0.573376 -1.564277,-1.109572 -2.401921,-1.597836 -0.03296,-0.01921 -0.06357,-0.04139 -0.09663,-0.06046 z"
         style="fill:#b28600;fill-opacity:1;stroke:#806000;stroke-width:0.375;stroke-dasharray:none;stroke-opacity:1"
         id="path16-8-9" />
      <path
         d="m 82.089046,109.44035 -1.328601,1.3286 -2.000395,1.99988 -1.999877,1.99936 -2.000912,2.00039 -1.999878,1.99936 -1.999878,-1.99936 -2.000394,-2.00039 -2.000395,-1.99936 -2.000395,-1.99988 -1.314648,-1.31413 c 0.311228,0.55725 0.637578,1.10609 0.990637,1.63814 0.52606,0.79276 1.104874,1.55062 1.719792,2.28048 0.606519,0.7199 1.256256,1.40451 1.944584,2.05517 0.685081,0.6476 1.405742,1.26183 2.167309,1.83297 0.764836,0.57359 1.563497,1.11034 2.400887,1.59887 0.03266,0.019 0.06335,0.0405 0.09612,0.0594 0.03123,-0.018 0.06033,-0.0387 0.09147,-0.0568 0.837564,-0.48839 1.636393,-1.02487 2.401404,-1.59835 0.761877,-0.57113 1.482463,-1.18533 2.167826,-1.83297 0.688281,-0.65039 1.33858,-1.33453 1.945101,-2.05413 0.615119,-0.7298 1.193534,-1.48776 1.719791,-2.28049 0.357051,-0.53784 0.686165,-1.09315 1.000456,-1.65674 z"
         style="fill:#b28600;fill-opacity:1;stroke:#806000;stroke-width:0.375;stroke-dasharray:none;stroke-opacity:1"
         id="path14-9-9" />
      <path
         d="m 106.93343,84.740537 c -0.0178,-0.03089 -0.0384,-0.05964 -0.0563,-0.09043 -0.48862,-0.837263 -1.02572,-1.635665 -1.59939,-2.400371 -0.57135,-0.761628 -1.18564,-1.482206 -1.83348,-2.167309 -0.65067,-0.688111 -1.3353,-1.337749 -2.05517,-1.944067 -0.72994,-0.614807 -1.488166,-1.193333 -2.280995,-1.719275 -0.534639,-0.354666 -1.085825,-0.682343 -1.645894,-0.994772 l 1.320332,1.320333 1.999877,2.000395 1.99936,2.000395 2.0004,2.000394 1.99936,1.999878 -1.99936,1.999878 -2.0004,2.000912 -1.99936,1.999877 -1.999877,2.000395 -1.322399,1.322917 c 0.560963,-0.313197 1.113055,-0.641265 1.648478,-0.996839 0.792504,-0.5263 1.550378,-1.105191 2.279968,-1.720308 0.71955,-0.606657 1.40381,-1.256694 2.05413,-1.945101 0.64756,-0.685476 1.26143,-1.40637 1.83245,-2.168343 0.57338,-0.765111 1.10957,-1.564277 1.59784,-2.401921 0.0192,-0.03296 0.0414,-0.06357 0.0605,-0.09663 z"
         style="fill:#b28600;fill-opacity:1;stroke:#806000;stroke-width:0.375;stroke-dasharray:none;stroke-opacity:1"
         id="path16-6-2-4" />
      <path
         d="m 48.117897,94.075368 -1.3286,-1.328601 -1.99988,-2.000395 -1.99936,-1.999877 -2.00039,-2.000912 -1.99936,-1.999878 1.99936,-1.999878 2.00039,-2.000394 1.99936,-2.000395 1.99988,-2.000395 1.31413,-1.314648 c -0.55725,0.311228 -1.10609,0.637578 -1.63814,0.990637 -0.79276,0.52606 -1.55062,1.104874 -2.28048,1.719792 -0.7199,0.606519 -1.40451,1.256256 -2.05517,1.944584 -0.6476,0.685081 -1.26183,1.405742 -1.83297,2.167309 -0.57359,0.764836 -1.11034,1.563497 -1.59887,2.400887 -0.019,0.03266 -0.0405,0.06335 -0.0594,0.09612 0.018,0.03123 0.0387,0.06033 0.0568,0.09147 0.48839,0.837564 1.02487,1.636393 1.59835,2.401404 0.57113,0.761877 1.18533,1.482463 1.83297,2.167826 0.65039,0.688281 1.33453,1.33858 2.05413,1.945101 0.7298,0.615119 1.48776,1.193534 2.28049,1.719791 0.53784,0.357051 1.09315,0.686165 1.65674,1.000456 z"
         style="fill:#b28600;fill-opacity:1;stroke:#806000;stroke-width:0.375;stroke-dasharray:none;stroke-opacity:1"
         id="path14-2-8-5" />
    </g>
  </g>
</svg>
