<?xml version="1.0" encoding="UTF-8" standalone="no"?>
<!-- Created with Inkscape (http://www.inkscape.org/) -->

<svg
   width="40mm"
   height="40mm"
   viewBox="0 0 40 40"
   version="1.1"
   id="svg1"
   inkscape:version="1.4 (e7c3feb100, 2024-10-09)"
   sodipodi:docname="ConfirmPressed.svg"
   xmlns:inkscape="http://www.inkscape.org/namespaces/inkscape"
   xmlns:sodipodi="http://sodipodi.sourceforge.net/DTD/sodipodi-0.dtd"
   xmlns="http://www.w3.org/2000/svg"
   xmlns:svg="http://www.w3.org/2000/svg">
  <sodipodi:namedview
     id="namedview1"
     pagecolor="#ffffff"
     bordercolor="#000000"
     borderopacity="0.25"
     inkscape:showpageshadow="2"
     inkscape:pageopacity="0.0"
     inkscape:pagecheckerboard="0"
     inkscape:deskcolor="#d1d1d1"
     inkscape:document-units="mm"
     inkscape:zoom="0.38930275"
     inkscape:cx="-304.39035"
     inkscape:cy="-472.63987"
     inkscape:window-width="1918"
     inkscape:window-height="1057"
     inkscape:window-x="1920"
     inkscape:window-y="21"
     inkscape:window-maximized="1"
     inkscape:current-layer="layer1"
     showgrid="false" />
  <defs
     id="defs1">
    <filter
       inkscape:collect="always"
       style="color-interpolation-filters:sRGB"
       id="filter1-29-7-5-4-1-5-4-7"
       x="-0.12288"
       y="-0.12288"
       width="1.24576"
       height="1.24576">
      <feGaussianBlur
         inkscape:collect="always"
         stdDeviation="1.6384"
         id="feGaussianBlur1-3-4-1-0-5-8-9-71" />
    </filter>
  </defs>
  <g
     inkscape:label="Layer 1"
     inkscape:groupmode="layer"
     id="layer1"
     transform="translate(-200,-80.000003)">
    <g
       id="g28">
      <g
         id="g33-0-3-4"
         inkscape:export-filename="../img/MinimapPressed.png"
         inkscape:export-xdpi="96"
         inkscape:export-ydpi="96"
         transform="translate(120,-80)">
        <circle
           style="fill:#808080;fill-opacity:1;stroke-width:0.0701146;stroke-linecap:round;stroke-linejoin:round;filter:url(#filter1-29-7-5-4-1-5-4-7)"
           id="path1-5-4-8-0-4-9-2-5-81"
           cx="65.088882"
           cy="49.61327"
           r="16"
           transform="matrix(1.0034036,0,0,1.0034036,34.689581,130.21787)" />
        <circle
           style="fill:#000000;fill-opacity:1;stroke-width:0.0701146;stroke-linecap:round;stroke-linejoin:round"
           id="path1-0-3-0-8-1-2"
           cx="100"
           cy="180"
           r="16" />
        <g
           id="g23-4-3-3-7-9"
           transform="translate(-68.195772,54.802832)" />
      </g>
      <path
         id="path15-9"
         style="fill:#ffffff;fill-opacity:1;stroke:none;stroke-width:1.36562;stroke-linecap:round;stroke-linejoin:round;stroke-opacity:1"
         d="m 228.84247,90.011038 c -0.91276,0.293143 -1.70606,0.909352 -2.54993,1.367335 -4.20379,2.601981 -7.90766,6.188581 -10.04383,10.663777 -0.94052,-2.083756 -3.26422,-3.556596 -5.57832,-3.298616 -0.63357,0.29216 -0.91032,1.311416 -0.41942,1.814036 1.64801,1.00033 3.21856,2.36654 3.77138,4.26833 0.61012,1.54026 0.76725,3.22409 1.32186,4.77065 0.45782,0.75965 1.60262,0.34809 1.77997,-0.42058 0.86816,-4.12888 2.86231,-8.03215 5.75904,-11.138106 2.06615,-2.3296 4.50594,-4.41945 6.89644,-6.4786 0.58607,-0.681531 -0.0901,-1.674994 -0.93719,-1.548226 z" />
    </g>
  </g>
</svg>
