<?xml version="1.0" encoding="UTF-8" standalone="no"?>
<!-- Created with Inkscape (http://www.inkscape.org/) -->

<svg
   width="40mm"
   height="40mm"
   viewBox="0 0 40 40"
   version="1.1"
   id="svg1"
   inkscape:version="1.4 (e7c3feb100, 2024-10-09)"
   sodipodi:docname="ButtonsAssets.svg"
   inkscape:export-batch-path="button/textures"
   inkscape:export-batch-name=""
   xmlns:inkscape="http://www.inkscape.org/namespaces/inkscape"
   xmlns:sodipodi="http://sodipodi.sourceforge.net/DTD/sodipodi-0.dtd"
   xmlns="http://www.w3.org/2000/svg"
   xmlns:svg="http://www.w3.org/2000/svg">
  <sodipodi:namedview
     id="namedview1"
     pagecolor="#ffffff"
     bordercolor="#000000"
     borderopacity="0.25"
     inkscape:showpageshadow="2"
     inkscape:pageopacity="0.0"
     inkscape:pagecheckerboard="0"
     inkscape:deskcolor="#d1d1d1"
     inkscape:document-units="mm"
     inkscape:zoom="0.55055723"
     inkscape:cx="699.29152"
     inkscape:cy="688.39347"
     inkscape:window-width="1918"
     inkscape:window-height="1057"
     inkscape:window-x="1920"
     inkscape:window-y="21"
     inkscape:window-maximized="1"
     inkscape:current-layer="layer1"
     showgrid="false">
    <inkscape:page
       x="0"
       y="0"
       width="40"
       height="40"
       id="page1"
       margin="0"
       bleed="0" />
  </sodipodi:namedview>
  <defs
     id="defs1">
    <filter
       inkscape:collect="always"
       style="color-interpolation-filters:sRGB"
       id="filter1-29-7-5-9-6-1"
       x="-0.12288"
       y="-0.12288"
       width="1.24576"
       height="1.24576">
      <feGaussianBlur
         inkscape:collect="always"
         stdDeviation="1.6384"
         id="feGaussianBlur1-3-4-1-1-2-27" />
    </filter>
  </defs>
  <g
     inkscape:label="Layer 1"
     inkscape:groupmode="layer"
     id="layer1"
     transform="translate(-272.34187,-123.36402)">
    <g
       id="g26-0-3-0"
       inkscape:export-filename="../img/MinimapUnpressed.png"
       inkscape:export-xdpi="96"
       inkscape:export-ydpi="96"
       transform="translate(272.34187,-36.635984)"
       inkscape:label="DecimalUnpressed">
      <circle
         style="fill:#000000;fill-opacity:1;stroke-width:0.0701146;stroke-linecap:round;stroke-linejoin:round;filter:url(#filter1-29-7-5-9-6-1)"
         id="path1-5-4-8-0-48-6-2"
         cx="65.088882"
         cy="49.61327"
         r="16"
         transform="matrix(1.0034036,0,0,1.0034036,-45.310418,130.21787)" />
      <circle
         style="fill:#737373;fill-opacity:1;stroke-width:0.0701146;stroke-linecap:round;stroke-linejoin:round"
         id="path1-7-9-62-0-0-37"
         cx="18"
         cy="178"
         r="16" />
      <g
         id="g16-9-4-5-5"
         transform="translate(-150.19577,52.802833)" />
      <path
         d="m 135.35417,137.92145 q 0,5.75467 -3.63801,5.75467 -1.75287,0 -2.64583,-1.47174 -0.89297,-1.47174 -0.89297,-4.28293 0,-2.75332 0.89297,-4.20852 0.89296,-1.46348 2.71197,-1.46348 1.75286,0 2.66237,1.44694 0.9095,1.43867 0.9095,4.22506 z m -2.42259,0 q 0,-2.57969 -0.28938,-3.70416 -0.28939,-1.13275 -0.90951,-1.13275 -0.61185,0 -0.87643,1.09141 -0.25631,1.0914 -0.25631,3.7455 0,2.69543 0.26458,3.81164 0.26458,1.11621 0.86816,1.11621 0.61185,0 0.90124,-1.14101 0.29765,-1.14928 0.29765,-3.78684 z m 5.18417,5.82909 q -0.5705,0 -0.97565,-0.39688 -0.39687,-0.39687 -0.39687,-0.97565 0,-0.5705 0.39687,-0.96738 0.39688,-0.40514 0.97565,-0.40514 0.57051,0 0.96738,0.39687 0.40515,0.39688 0.40515,0.97565 0,0.57051 -0.39688,0.97565 -0.39687,0.39688 -0.97565,0.39688 z m 7.78039,-1.14929 1.92649,0.19844 v 0.71107 h -6.23423 v -0.71107 l 1.91823,-0.19844 v -8.35916 l -1.90996,0.62838 v -0.70279 l 3.12538,-1.83555 h 1.17409 z"
         id="text1"
         style="font-weight:bold;font-size:16.9333px;font-family:'Liberation Serif';-inkscape-font-specification:'Liberation Serif Bold';text-align:justify;fill:#ffffff;stroke-width:2;stroke-linecap:round;stroke-linejoin:round"
         transform="translate(-120,40)"
         aria-label="0.1" />
    </g>
  </g>
</svg>
